<?xml version="1.0" standalone="no"?>
<!DOCTYPE svg PUBLIC "-//W3C//DTD SVG 20010904//EN"
 "http://www.w3.org/TR/2001/REC-SVG-20010904/DTD/svg10.dtd">
<svg version="1.0" xmlns="http://www.w3.org/2000/svg"
 width="300.000000pt" height="37.000000pt" viewBox="0 0 300.000000 37.000000"
 preserveAspectRatio="xMidYMid meet">
<metadata>
Created by potrace 1.10, written by Peter Selinger 2001-2011
</metadata>
<g transform="translate(0.000000,37.000000) scale(0.100000,-0.100000)"
fill="#000000" stroke="none">
<path d="M183 358 c-28 -14 -31 -30 -33 -177 -1 -140 9 -171 58 -171 43 0 52
17 52 99 l0 74 25 -23 c20 -19 25 -33 25 -71 0 -53 18 -79 54 -79 48 0 56 25
56 174 0 76 -5 146 -10 157 -7 13 -21 19 -43 19 -39 0 -57 -15 -57 -48 0 -23
-2 -23 -45 17 -48 44 -49 45 -82 29z m53 -20 c9 -15 14 -108 6 -108 -13 0 -72
65 -72 80 0 34 50 55 66 28z m152 0 c7 -7 12 -40 12 -77 l0 -65 -35 34 c-28
27 -35 42 -35 71 0 45 31 64 58 37z m-78 -126 l0 -55 -25 23 c-21 20 -25 33
-25 78 l0 55 25 -23 c21 -20 25 -33 25 -78z m-65 -53 c-2 -19 -4 -53 -4 -76
-1 -51 -29 -74 -55 -47 -13 12 -16 39 -16 127 l1 112 38 -41 c32 -34 38 -47
36 -75z m155 1 c0 -22 -20 -40 -44 -40 -16 0 -17 -3 -8 -12 10 -10 17 -10 32
0 19 11 20 9 20 -28 0 -45 -23 -65 -53 -48 -14 7 -18 20 -16 54 2 24 1 45 -2
48 -2 2 -2 28 0 56 l3 52 34 -33 c19 -18 34 -40 34 -49z"/>
<path d="M191 326 c-16 -19 -6 -36 20 -36 15 0 20 6 17 22 -4 27 -21 33 -37
14z m29 -16 c0 -5 -4 -10 -10 -10 -5 0 -10 5 -10 10 0 6 5 10 10 10 6 0 10 -4
10 -10z"/>
<path d="M344 165 c-4 -9 -2 -21 4 -27 15 -15 44 -1 40 19 -4 23 -36 29 -44 8z
m26 -5 c0 -5 -5 -10 -11 -10 -5 0 -7 5 -4 10 3 6 8 10 11 10 2 0 4 -4 4 -10z"/>
<path d="M481 346 c-15 -18 -16 -303 -1 -321 10 -11 37 -15 115 -15 86 0 104
3 118 18 21 23 21 42 3 67 -11 16 -25 19 -80 17 -40 -2 -66 1 -66 8 0 5 12 10
28 10 38 0 72 26 72 55 0 29 -34 55 -72 55 -16 0 -28 5 -28 11 0 6 21 9 53 8
28 -2 62 1 74 5 31 10 40 51 18 76 -16 18 -31 20 -121 19 -68 0 -106 -5 -113
-13z m63 -12 c9 -8 16 -26 16 -40 0 -19 -5 -24 -24 -24 -24 0 -56 23 -56 40 0
11 29 40 40 40 5 0 16 -7 24 -16z m150 0 c37 -37 7 -64 -72 -64 l-50 0 -4 40
-4 40 58 0 c38 0 62 -5 72 -16z m-135 -80 c8 -7 -3 -11 -41 -17 -33 -5 -38 -3
-38 13 0 16 5 18 38 13 20 -3 39 -7 41 -9z m1 -70 c0 -34 -1 -35 -31 -32 -63
6 -61 68 2 68 27 0 29 -3 29 -36z m81 20 c19 -23 -1 -48 -40 -52 -30 -3 -31
-2 -31 32 0 33 2 36 29 36 16 0 34 -7 42 -16z m-109 -74 c43 0 33 -17 -12 -22
-37 -3 -40 -2 -40 21 0 19 3 22 12 13 7 -7 25 -12 40 -12z m28 -54 c0 -22 -23
-56 -37 -56 -10 0 -43 32 -43 41 0 16 32 39 56 39 19 0 24 -5 24 -24z m140 9
c6 -8 10 -22 8 -32 -3 -15 -16 -19 -76 -23 -57 -4 -71 -2 -67 8 3 8 5 25 5 38
0 23 3 24 59 24 39 0 63 -5 71 -15z"/>
<path d="M500 311 c0 -19 23 -35 34 -24 14 15 5 43 -14 43 -13 0 -20 -7 -20
-19z m30 -1 c0 -5 -4 -10 -10 -10 -5 0 -10 5 -10 10 0 6 5 10 10 10 6 0 10 -4
10 -10z"/>
<path d="M503 194 c-8 -21 13 -42 28 -27 13 13 5 43 -11 43 -6 0 -13 -7 -17
-16z"/>
<path d="M507 84 c-16 -16 -7 -44 14 -44 15 0 20 5 17 22 -3 22 -19 33 -31 22z
m23 -24 c0 -5 -4 -10 -10 -10 -5 0 -10 5 -10 10 0 6 5 10 10 10 6 0 10 -4 10
-10z"/>
<path d="M780 341 c-5 -11 -10 -82 -10 -159 0 -122 2 -141 18 -155 41 -37 83
-16 91 45 l6 43 32 -52 c27 -44 38 -53 61 -53 29 0 62 26 62 48 0 6 -14 34
-31 61 l-30 50 20 28 c11 15 25 47 31 71 9 36 9 48 -5 68 -15 23 -20 24 -125
24 -98 0 -110 -2 -120 -19z m68 -3 c7 -7 12 -25 12 -40 0 -23 -4 -28 -23 -28
-41 0 -62 41 -35 68 15 15 31 15 46 0z m88 0 c-3 -7 -7 -25 -10 -40 -8 -37
-46 -40 -46 -4 0 13 -3 31 -6 40 -5 13 1 16 30 16 24 0 34 -4 32 -12z m72 0
c29 -29 2 -68 -47 -68 -16 0 -21 6 -21 24 0 43 42 70 68 44z m-148 -104 c0
-17 -6 -24 -19 -24 -11 0 -26 -3 -35 -6 -13 -5 -16 1 -16 28 0 33 1 34 35 30
29 -3 35 -8 35 -28z m33 -1 c-17 -26 -17 -27 1 -20 13 5 26 1 43 -14 19 -18
23 -20 23 -6 0 9 -9 23 -21 31 -29 20 -15 36 32 36 44 0 44 -1 25 -38 -15 -29
-46 -59 -87 -84 -28 -18 -29 -16 -31 42 -2 64 2 80 17 80 13 0 13 -4 -2 -27z
m-33 -74 c0 -39 -1 -40 -32 -37 -29 3 -33 6 -33 33 0 25 5 31 30 36 17 4 31 7
33 8 1 0 2 -17 2 -40z m134 -53 c31 -52 30 -50 10 -70 -23 -24 -31 -20 -68 31
l-34 47 26 17 c15 10 30 18 34 18 3 1 18 -19 32 -43z m-134 -32 c0 -41 -21
-59 -49 -44 -15 7 -21 21 -21 44 0 31 2 32 35 32 32 -1 35 -3 35 -32z"/>
<path d="M805 320 c-4 -7 -3 -16 3 -22 14 -14 45 -2 40 15 -6 16 -34 21 -43 7z
m35 -4 c0 -3 -4 -8 -10 -11 -5 -3 -10 -1 -10 4 0 6 5 11 10 11 6 0 10 -2 10
-4z"/>
<path d="M973 333 c-21 -8 -15 -43 6 -43 11 0 23 5 27 11 8 14 -17 38 -33 32z
m17 -23 c0 -5 -4 -10 -10 -10 -5 0 -10 5 -10 10 0 6 5 10 10 10 6 0 10 -4 10
-10z"/>
<path d="M884 189 c-10 -17 23 -46 37 -32 7 7 9 19 6 27 -7 18 -33 21 -43 5z
m31 -9 c3 -5 1 -10 -4 -10 -6 0 -11 5 -11 10 0 6 2 10 4 10 3 0 8 -4 11 -10z"/>
<path d="M804 165 c-4 -9 -2 -21 4 -27 15 -15 44 -1 40 19 -4 23 -36 29 -44 8z
m31 -5 c3 -5 1 -10 -4 -10 -6 0 -11 5 -11 10 0 6 2 10 4 10 3 0 8 -4 11 -10z"/>
<path d="M1097 343 c-12 -15 -15 -45 -15 -158 0 -173 1 -175 101 -175 123 0
161 43 161 180 1 132 -36 170 -162 170 -53 0 -73 -4 -85 -17z m72 -15 c13 -34
7 -53 -18 -56 -41 -6 -67 38 -39 66 19 19 48 14 57 -10z m89 8 c35 -18 59 -45
67 -76 5 -23 3 -25 -34 -25 -30 -1 -41 3 -44 17 -3 11 -15 18 -31 18 -21 0
-26 5 -26 24 0 13 -3 31 -6 40 -8 21 36 22 74 2z m-85 -149 c-1 -59 -5 -71
-17 -69 -9 2 -25 -2 -36 -8 -19 -10 -20 -8 -20 72 l0 84 38 -4 37 -4 -2 -71z
m55 61 c7 -7 12 -35 12 -63 0 -51 -12 -75 -37 -75 -10 0 -13 20 -13 75 0 76 9
92 38 63z m87 -34 c19 -20 16 -43 -7 -58 -21 -13 -51 2 -56 26 -3 16 23 48 38
48 5 0 16 -7 25 -16z m-2 -73 c24 14 23 -17 -3 -58 -22 -37 -40 -48 -94 -57
-33 -6 -38 -5 -32 9 3 9 6 27 6 40 0 18 6 24 28 27 19 2 28 9 30 25 3 18 7 21
26 14 13 -5 29 -5 39 0z m-137 -68 c-2 -16 -4 -31 -5 -34 -2 -14 -33 -19 -52
-9 -39 21 -16 70 32 70 24 0 27 -3 25 -27z"/>
<path d="M1115 320 c-9 -15 4 -30 26 -30 12 0 19 7 19 20 0 21 -33 29 -45 10z
m35 -10 c0 -5 -4 -10 -10 -10 -5 0 -10 5 -10 10 0 6 5 10 10 10 6 0 10 -4 10
-10z"/>
<path d="M1270 190 c0 -13 7 -20 20 -20 13 0 20 7 20 20 0 13 -7 20 -20 20
-13 0 -20 -7 -20 -20z m30 0 c0 -5 -4 -10 -10 -10 -5 0 -10 5 -10 10 0 6 5 10
10 10 6 0 10 -4 10 -10z"/>
<path d="M1119 74 c-9 -11 -9 -18 -1 -26 14 -14 42 -3 42 16 0 20 -27 27 -41
10z m31 -14 c0 -5 -4 -10 -10 -10 -5 0 -10 5 -10 10 0 6 5 10 10 10 6 0 10 -4
10 -10z"/>
<path d="M1402 348 c-8 -8 -12 -58 -12 -158 0 -184 -3 -180 133 -180 104 0
127 10 127 55 0 44 -36 57 -141 50 -51 -3 -95 -8 -98 -10 -4 -2 -6 7 -6 20 0
18 3 21 17 14 28 -15 121 -11 146 7 26 18 29 56 5 79 -13 14 -32 16 -93 13
-65 -3 -76 -1 -76 14 0 13 7 15 36 10 19 -3 40 -5 45 -5 132 0 145 3 157 28 8
19 8 31 0 50 -11 24 -14 25 -120 25 -71 0 -112 -4 -120 -12z m66 -10 c7 -7 12
-25 12 -40 0 -23 -4 -28 -23 -28 -27 0 -47 17 -47 40 0 18 19 40 35 40 6 0 16
-5 23 -12z m150 0 c18 -18 14 -46 -7 -58 -11 -5 -40 -10 -65 -10 -40 0 -46 3
-46 21 0 11 -5 29 -10 40 -10 18 -7 19 53 19 36 0 68 -5 75 -12z m-138 -154
c0 -34 -1 -35 -32 -32 -54 5 -53 68 2 68 28 0 30 -3 30 -36z m85 1 c0 -27 -3
-30 -35 -33 -34 -3 -35 -2 -35 33 0 35 1 36 35 33 32 -3 35 -6 35 -33z m-85
-116 c0 -17 4 -28 10 -24 6 3 10 17 10 31 0 22 3 24 53 24 63 0 80 -10 75 -41
-3 -24 -5 -24 -108 -24 -93 0 -105 2 -108 18 -5 25 16 47 44 47 20 0 24 -5 24
-31z"/>
<path d="M1425 320 c-4 -7 -3 -16 3 -22 14 -14 45 -2 40 15 -6 16 -34 21 -43
7z"/>
<path d="M1424 195 c-4 -9 -2 -21 4 -27 15 -15 44 -1 40 19 -4 23 -36 29 -44
8z m26 -5 c0 -5 -5 -10 -11 -10 -5 0 -7 5 -4 10 3 6 8 10 11 10 2 0 4 -4 4
-10z"/>
<path d="M1431 81 c-17 -11 -7 -41 13 -41 22 0 30 20 15 36 -9 8 -19 10 -28 5z"/>
<path d="M1746 339 c-46 -37 -56 -68 -56 -187 0 -120 10 -142 63 -142 29 0 47
24 47 64 0 20 5 26 23 27 12 0 43 1 70 2 45 3 47 2 47 -24 0 -26 -22 -59 -39
-59 -14 0 -39 34 -44 60 -3 19 -5 17 -6 -10 -1 -42 13 -60 49 -60 50 0 59 23
56 145 -3 124 -17 165 -66 190 -43 22 -112 19 -144 -6z m132 -9 c34 -21 62
-71 62 -111 0 -15 -4 -19 -16 -15 -9 3 -27 6 -40 6 -19 0 -24 5 -24 25 0 16
-7 28 -17 31 -49 15 -66 42 -43 69 17 20 39 19 78 -5z m-104 -14 c-3 -14 0
-29 10 -39 10 -10 12 -18 6 -22 -5 -3 -10 -15 -10 -26 0 -12 -7 -19 -19 -19
-11 0 -26 -3 -35 -6 -38 -15 -8 102 31 125 24 14 24 14 17 -13z m76 -92 c0 -8
-10 -14 -25 -14 -18 0 -25 5 -25 19 0 11 6 21 13 24 15 6 37 -11 37 -29z m0
-69 l0 -36 -67 3 c-56 2 -68 6 -71 21 -8 39 5 47 73 47 l65 0 0 -35z m81 19
c19 -23 -1 -48 -40 -52 -30 -3 -31 -2 -31 32 0 33 2 36 29 36 16 0 34 -7 42
-16z m-170 -74 c17 0 20 -6 17 -31 -7 -68 -68 -60 -68 8 0 28 3 34 16 29 9 -3
25 -6 35 -6z"/>
<path d="M1805 320 c-4 -7 -3 -16 3 -22 14 -14 45 -2 40 15 -6 16 -34 21 -43
7z m25 -10 c0 -5 -4 -10 -10 -10 -5 0 -10 5 -10 10 0 6 5 10 10 10 6 0 10 -4
10 -10z"/>
<path d="M1724 165 c-4 -9 -2 -21 4 -27 15 -15 44 -1 40 19 -4 23 -36 29 -44
8z m31 -4 c3 -5 1 -12 -5 -16 -5 -3 -10 1 -10 9 0 18 6 21 15 7z"/>
<path d="M1883 164 c-8 -21 13 -42 28 -27 13 13 5 43 -11 43 -6 0 -13 -7 -17
-16z"/>
<path d="M2022 348 c-8 -8 -12 -59 -12 -163 0 -104 4 -155 12 -163 18 -18 63
-14 81 6 33 36 13 92 -32 92 -59 0 -66 61 -8 68 21 3 26 -2 32 -26 3 -16 13
-38 21 -48 8 -10 28 -38 44 -61 23 -33 37 -43 58 -43 57 0 68 45 26 111 l-25
40 25 52 c28 54 34 115 14 135 -16 16 -220 16 -236 0z m66 -10 c7 -7 12 -25
12 -40 0 -23 -4 -28 -24 -28 -22 0 -56 23 -56 37 0 11 33 43 45 43 6 0 16 -5
23 -12z m82 -7 c-5 -11 -10 -29 -10 -40 0 -15 -6 -21 -24 -21 -19 0 -23 4 -19
19 3 10 0 28 -6 40 -11 20 -9 21 29 21 37 0 40 -2 30 -19z m68 7 c17 -17 15
-55 -4 -62 -36 -14 -54 -7 -54 22 0 29 16 52 35 52 6 0 16 -5 23 -12z m-138
-104 c0 -20 -5 -24 -28 -24 -15 0 -33 -5 -39 -11 -7 -7 -10 1 -9 28 1 38 1 38
38 34 32 -3 38 -7 38 -27z m131 -12 l-21 -41 -28 27 c-34 33 -25 50 26 54 20
2 38 2 40 1 2 0 -6 -19 -17 -41z m-91 23 c-7 -8 -16 -15 -21 -15 -5 0 -9 7 -9
15 0 9 9 15 21 15 18 0 19 -2 9 -15z m30 -45 c27 -27 25 -37 -9 -54 -21 -11
-31 -12 -40 -3 -14 14 -14 50 1 65 17 17 25 15 48 -8z m60 -95 c19 -35 22 -49
14 -63 -21 -32 -42 -25 -74 24 l-30 47 28 18 c15 10 29 18 32 18 3 1 17 -19
30 -44z m-154 -5 c19 0 24 -5 24 -24 0 -24 -23 -56 -39 -56 -14 0 -28 24 -35
59 -5 27 -3 32 10 27 9 -3 27 -6 40 -6z"/>
<path d="M2040 311 c0 -24 25 -34 40 -16 15 18 5 35 -21 35 -12 0 -19 -7 -19
-19z m30 -1 c0 -5 -4 -10 -10 -10 -5 0 -10 5 -10 10 0 6 5 10 10 10 6 0 10 -4
10 -10z"/>
<path d="M2195 321 c-9 -16 3 -31 26 -31 14 0 19 6 17 17 -4 20 -33 29 -43 14z
m35 -11 c0 -5 -4 -10 -10 -10 -5 0 -10 5 -10 10 0 6 5 10 10 10 6 0 10 -4 10
-10z"/>
<path d="M2123 184 c-3 -8 -1 -20 6 -27 14 -14 47 15 37 32 -10 16 -36 13 -43
-5z"/>
<path d="M2332 348 c-8 -8 -12 -59 -12 -163 0 -104 4 -155 12 -163 19 -19 183
-16 202 4 38 38 4 84 -62 84 l-42 0 0 108 c0 93 -3 111 -18 125 -22 20 -63 22
-80 5z m68 -17 c5 -11 10 -65 10 -120 0 -100 0 -101 -24 -101 -13 0 -30 -2
-38 -5 -10 -4 -12 17 -10 107 2 62 8 118 14 125 15 19 36 16 48 -6z m8 -262
c-4 -44 -30 -59 -57 -35 -12 11 -21 23 -21 27 0 16 33 39 56 39 22 0 25 -4 22
-31z m116 8 c20 -31 -4 -52 -64 -55 -47 -3 -52 -1 -41 12 8 9 11 27 8 41 -4
25 -3 26 41 23 30 -2 49 -9 56 -21z"/>
<path d="M2363 83 c-21 -8 -15 -43 6 -43 11 0 23 5 27 11 8 14 -17 38 -33 32z
m17 -23 c0 -5 -4 -10 -10 -10 -5 0 -10 5 -10 10 0 6 5 10 10 10 6 0 10 -4 10
-10z"/>
<path d="M2636 339 c-46 -36 -56 -69 -56 -184 0 -122 8 -145 50 -145 37 0 60
23 60 61 0 24 4 29 25 29 22 0 25 -4 25 -33 0 -40 15 -57 52 -57 47 0 58 30
54 150 -2 58 -9 117 -16 133 -30 63 -139 89 -194 46z m104 -4 c15 -18 10 -46
-10 -55 -46 -21 -55 -29 -58 -49 -2 -15 -11 -21 -27 -21 -13 0 -27 -4 -30 -10
-4 -6 7 -10 24 -10 29 0 31 -2 31 -40 0 -38 -2 -40 -25 -36 -40 7 -43 13 -44
83 0 77 17 115 63 137 39 20 60 20 76 1z m87 -101 c5 -40 3 -47 -8 -36 -7 6
-25 12 -40 12 -22 0 -28 5 -31 29 -2 16 2 37 9 47 7 10 10 27 7 38 -5 17 0 15
26 -10 25 -25 33 -42 37 -80z m-99 14 c19 -19 14 -35 -13 -40 -21 -4 -25 -1
-25 17 0 34 16 45 38 23z m92 -73 c13 -16 5 -54 -13 -56 -7 -1 -36 -2 -64 -3
l-53 -1 0 38 0 37 59 0 c39 0 63 -5 71 -15z m-152 -108 c-6 -64 -68 -57 -68 7
0 31 1 32 36 28 32 -4 35 -7 32 -35z m162 9 c0 -39 -20 -60 -49 -51 -20 6 -38
53 -24 66 4 4 19 9 33 12 14 2 28 5 33 6 4 0 7 -14 7 -33z"/>
<path d="M2690 310 c0 -16 5 -21 23 -18 12 2 22 10 22 18 0 8 -10 16 -22 18
-18 3 -23 -2 -23 -18z m30 0 c0 -5 -4 -10 -10 -10 -5 0 -10 5 -10 10 0 6 5 10
10 10 6 0 10 -4 10 -10z"/>
<path d="M2614 165 c-4 -9 -2 -21 4 -27 15 -15 44 -1 40 19 -4 23 -36 29 -44
8z m26 -11 c0 -8 -5 -12 -10 -9 -6 4 -8 11 -5 16 9 14 15 11 15 -7z"/>
<path d="M2773 169 c-15 -15 -5 -39 17 -39 22 0 32 24 17 39 -6 6 -14 11 -17
11 -3 0 -11 -5 -17 -11z m27 -19 c0 -5 -2 -10 -4 -10 -3 0 -8 5 -11 10 -3 6
-1 10 4 10 6 0 11 -4 11 -10z"/>
<path d="M2473 245 c0 -22 2 -30 4 -17 2 12 2 30 0 40 -3 9 -5 -1 -4 -23z"/>
<path d="M2471 184 c0 -11 3 -14 6 -6 3 7 2 16 -1 19 -3 4 -6 -2 -5 -13z"/>
<path d="M2044 165 c-7 -18 3 -35 21 -35 21 0 28 19 15 35 -16 19 -29 19 -36
0z m26 -15 c0 -5 -2 -10 -4 -10 -3 0 -8 5 -11 10 -3 6 -1 10 4 10 6 0 11 -4
11 -10z"/>
</g>
</svg>
