<svg width="708" height="708" viewBox="0 0 708 708" fill="none" xmlns="http://www.w3.org/2000/svg">
<g filter="url(#filter0_d)">
<circle r="272" transform="matrix(1 0 0 -1 354 353)" fill="url(#paint0_linear)"/>
</g>
<g filter="url(#filter1_d)">
<circle cx="355.5" cy="354.5" r="258.5" fill="url(#paint1_linear)"/>
</g>
<path d="M239.626 424.789L245.493 386.305H257.746L246.874 447.569H234.449L227.373 411.501L220.298 447.569H207.872L197 386.305H209.253L214.948 424.789L222.196 386.305H232.55L239.626 424.789Z" fill="#A70050"/>
<path d="M291.225 427.205H275.176V437.732H294.159V447.569H263.268V398.558H294.159V408.395H275.176V417.196H291.225V427.205Z" fill="#A70050"/>
<path d="M301.11 447.569V398.558H317.678C323.373 398.558 327.687 399.766 330.793 402.01C333.9 404.253 335.28 407.705 335.28 412.019C335.28 414.435 334.762 416.678 333.554 418.577C332.519 420.475 330.793 421.856 328.722 422.719C330.966 423.409 332.864 424.617 334.072 426.515C335.28 428.413 335.97 430.657 335.97 433.418C335.97 438.25 334.59 441.874 331.656 444.118C328.895 446.361 324.581 447.397 318.886 447.397H301.11V447.569ZM313.018 418.922H318.713C321.819 418.922 323.545 417.196 323.545 413.917C323.545 412.019 323.2 410.638 322.337 409.775C321.474 408.913 320.266 408.567 318.713 408.567H313.018V418.922ZM313.018 427.205V437.732H319.058C320.784 437.732 321.992 437.215 322.855 436.352C323.718 435.489 324.235 434.281 324.235 432.555C324.235 428.931 322.855 427.205 319.921 427.033H313.018V427.205Z" fill="#A70050"/>
<path d="M384.416 427.033C384.07 433.936 382.172 439.286 378.548 442.91C374.924 446.534 369.747 448.26 363.189 448.26C356.286 448.26 350.936 446.016 347.312 441.357C343.688 436.87 341.79 430.312 341.79 421.856V411.501C341.79 403.045 343.688 396.66 347.485 392C351.281 387.513 356.631 385.097 363.361 385.097C370.092 385.097 375.096 386.996 378.548 390.62C381.999 394.416 383.898 399.766 384.416 406.669H371.99C371.818 402.355 371.3 399.421 369.919 397.695C368.711 395.97 366.468 395.279 363.189 395.279C359.91 395.279 357.494 396.487 356.113 398.731C354.733 400.974 354.042 404.771 353.87 410.121V421.683C353.87 427.723 354.56 431.865 355.941 434.281C357.321 436.525 359.565 437.733 363.016 437.733C366.295 437.733 368.539 436.87 369.747 435.316C370.955 433.763 371.645 430.83 371.818 426.688H384.416V427.033Z" fill="#A70050"/>
<path d="M429.285 423.927C429.285 428.759 428.422 432.9 426.869 436.524C425.316 440.148 422.9 443.082 419.966 444.981C417.032 447.051 413.581 447.914 409.784 447.914C405.987 447.914 402.536 446.879 399.602 444.981C396.668 443.082 394.252 440.148 392.527 436.524C390.801 432.9 390.11 428.586 390.11 423.754V421.856C390.11 417.024 390.973 412.709 392.527 409.085C394.08 405.461 396.496 402.527 399.429 400.629C402.363 398.558 405.815 397.695 409.611 397.695C415.134 397.695 419.793 399.766 423.417 403.735C427.041 407.877 428.94 413.227 429.285 420.13V423.927ZM417.377 422.028C417.377 417.369 416.687 413.917 415.306 411.329C413.926 408.913 412.027 407.532 409.611 407.532C407.023 407.532 405.124 408.74 403.744 411.329C402.363 413.745 401.846 417.369 401.846 422.028V423.927C401.846 428.586 402.536 432.21 403.916 434.626C405.297 437.042 407.195 438.423 409.611 438.423C412.027 438.423 413.926 437.215 415.306 434.626C416.687 432.038 417.377 428.586 417.377 424.099V422.028Z" fill="#A70050"/>
<path d="M473.464 447.569H461.556L447.75 417.196V447.569H435.843V398.558H447.75L461.556 428.931V398.558H473.464V447.569Z" fill="#A70050"/>
<path d="M509.359 428.413H493.137V447.397H481.229V398.558H511.085V408.395H493.137V418.577H509.359V428.413Z" fill="#A70050"/>
<path d="M206.54 485.119V459.103H208.727V483.197H219.204V485.119H206.54ZM242.081 485.119L249.472 459.015H252.841L260.178 485.119H257.903L255.91 477.87H246.367L244.357 485.119H242.081ZM246.897 475.948H255.381L251.147 460.585L246.897 475.948ZM295.888 461.026H288.921V485.119H286.751V461.026H279.784V459.103H295.888V461.026ZM315.523 485.119L322.914 459.015H326.282L333.62 485.119H331.344L329.351 477.87H319.809L317.798 485.119H315.523ZM320.338 475.948H328.822L324.589 460.585L320.338 475.948ZM375.537 459.103H379.277V485.119H377.195V461.149L370.034 485.119H366.859L359.681 461.149V485.119H357.6V459.103H361.339L368.429 483.32L375.537 459.103Z" fill="#272D5B"/>
<path d="M405.508 485.119V480.639C405.614 480.381 405.919 479.998 406.425 479.493C406.942 478.975 407.577 478.393 408.33 477.747C409.082 477.1 409.864 476.441 410.676 475.771C411.487 475.089 412.24 474.46 412.933 473.884C413.756 473.202 414.556 472.496 415.332 471.767C416.12 471.027 416.767 470.245 417.272 469.422C417.778 468.598 418.031 467.722 418.031 466.793C418.031 465.641 417.754 464.718 417.202 464.024C416.649 463.331 415.785 462.984 414.609 462.984C413.174 462.984 412.181 463.442 411.628 464.359C411.075 465.277 410.799 466.482 410.799 467.975H405.331C405.331 465.13 406.137 462.878 407.748 461.22C409.359 459.55 411.675 458.715 414.697 458.715C416.649 458.715 418.278 459.074 419.583 459.791C420.9 460.508 421.888 461.484 422.546 462.719C423.205 463.942 423.534 465.318 423.534 466.846C423.534 467.893 423.334 468.869 422.934 469.774C422.534 470.668 422.023 471.497 421.4 472.261C420.776 473.014 420.106 473.708 419.389 474.343C418.672 474.966 417.995 475.53 417.36 476.036C415.75 477.306 414.462 478.352 413.498 479.175C412.545 479.998 411.993 480.586 411.84 480.939H423.375V485.119H405.508ZM444.9 485.543C443.242 485.543 441.831 485.184 440.667 484.467C439.515 483.749 438.58 482.768 437.862 481.521C437.145 480.275 436.616 478.852 436.275 477.253C435.946 475.642 435.781 473.949 435.781 472.173C435.781 470.397 435.946 468.704 436.275 467.093C436.616 465.471 437.145 464.03 437.862 462.772C438.58 461.514 439.515 460.526 440.667 459.809C441.831 459.08 443.242 458.715 444.9 458.715C446.558 458.715 447.963 459.08 449.116 459.809C450.28 460.526 451.22 461.514 451.938 462.772C452.667 464.03 453.196 465.471 453.525 467.093C453.854 468.704 454.019 470.397 454.019 472.173C454.019 473.949 453.854 475.642 453.525 477.253C453.196 478.852 452.667 480.275 451.938 481.521C451.22 482.768 450.28 483.749 449.116 484.467C447.963 485.184 446.558 485.543 444.9 485.543ZM444.9 481.292C446.076 481.292 446.97 480.592 447.581 479.193C448.192 477.794 448.498 475.454 448.498 472.173C448.498 468.892 448.192 466.552 447.581 465.153C446.97 463.742 446.076 463.037 444.9 463.037C443.724 463.037 442.831 463.742 442.219 465.153C441.608 466.552 441.302 468.892 441.302 472.173C441.302 475.465 441.608 477.811 442.219 479.211C442.831 480.598 443.724 481.292 444.9 481.292ZM465.966 485.119V480.639C466.072 480.381 466.378 479.998 466.883 479.493C467.401 478.975 468.036 478.393 468.788 477.747C469.541 477.1 470.323 476.441 471.134 475.771C471.946 475.089 472.698 474.46 473.392 473.884C474.215 473.202 475.015 472.496 475.791 471.767C476.578 471.027 477.225 470.245 477.731 469.422C478.236 468.598 478.489 467.722 478.489 466.793C478.489 465.641 478.213 464.718 477.66 464.024C477.108 463.331 476.243 462.984 475.067 462.984C473.633 462.984 472.639 463.442 472.087 464.359C471.534 465.277 471.258 466.482 471.258 467.975H465.79C465.79 465.13 466.595 462.878 468.206 461.22C469.817 459.55 472.134 458.715 475.156 458.715C477.108 458.715 478.736 459.074 480.041 459.791C481.358 460.508 482.346 461.484 483.005 462.719C483.663 463.942 483.992 465.318 483.992 466.846C483.992 467.893 483.792 468.869 483.393 469.774C482.993 470.668 482.481 471.497 481.858 472.261C481.235 473.014 480.565 473.708 479.847 474.343C479.13 474.966 478.454 475.53 477.819 476.036C476.208 477.306 474.92 478.352 473.956 479.175C473.004 479.998 472.451 480.586 472.298 480.939H483.834V485.119H465.966ZM507.334 459.068V485.119H501.902V464.183C501.749 464.301 501.419 464.453 500.914 464.642C500.42 464.818 499.826 464.988 499.132 465.153C498.439 465.318 497.721 465.429 496.98 465.488V461.185C497.721 461.102 498.439 460.944 499.132 460.708C499.838 460.473 500.449 460.209 500.967 459.915C501.484 459.621 501.825 459.338 501.99 459.068H507.334Z" fill="#272D5B"/>
<path d="M361.873 368.283L451.253 289.207L427.055 171L370.325 221.247L408.531 287.355L361.873 368.283Z" fill="#272D5B"/>
<path d="M346.128 368.283L256.749 289.207L280.83 171L337.56 221.247L299.354 287.355L346.128 368.283Z" fill="#272D5B"/>
<path d="M361.757 233.866L354 220.552L314.289 289.439L354.116 358.21L393.827 289.439L361.757 233.866Z" fill="#A70050"/>
<path d="M270.282 523.766C270.282 525.4 269.916 526.609 269.183 527.393C268.456 528.171 267.438 528.56 266.131 528.56C264.823 528.56 263.803 528.171 263.07 527.393C262.343 526.609 261.979 525.4 261.979 523.766V515.928H263.028V523.723C263.028 525.099 263.293 526.091 263.822 526.7C264.358 527.308 265.127 527.613 266.131 527.613C267.134 527.613 267.903 527.308 268.439 526.7C268.974 526.091 269.242 525.099 269.242 523.723V515.928H270.282V523.766ZM273.885 528.399H272.862V515.928H274.57L280.311 527.604V515.928H281.334V528.399H279.6L273.885 516.748V528.399ZM294.698 527.477V528.399H288.137V515.928H294.698V516.85H289.185V521.677H293.928V522.607H289.185V527.477H294.698ZM300.245 528.484L296.745 515.928H297.894L300.989 527.469L304.05 515.928H305.2L301.742 528.484H300.245ZM313.606 527.477V528.399H307.045V515.928H313.606V516.85H308.093V521.677H312.837V522.607H308.093V527.477H313.606ZM317.2 528.399H316.177V515.928H317.885L323.626 527.604V515.928H324.649V528.399H322.916L317.2 516.748V528.399ZM334.42 516.85H331.08V528.399H330.04V516.85H326.7V515.928H334.42V516.85ZM339.83 528.56C338.883 528.56 338.044 528.306 337.311 527.799C336.578 527.286 336.003 526.553 335.586 525.6C335.169 524.642 334.96 523.492 334.96 522.151C334.96 520.804 335.169 519.657 335.586 518.71C336.009 517.763 336.586 517.041 337.319 516.545C338.052 516.044 338.889 515.793 339.83 515.793C340.777 515.793 341.617 516.044 342.35 516.545C343.083 517.041 343.658 517.763 344.075 518.71C344.497 519.657 344.709 520.804 344.709 522.151C344.709 523.492 344.497 524.642 344.075 525.6C343.658 526.553 343.083 527.286 342.35 527.799C341.617 528.306 340.777 528.56 339.83 528.56ZM339.83 527.613C340.58 527.613 341.24 527.401 341.809 526.979C342.384 526.556 342.832 525.939 343.153 525.127C343.48 524.315 343.644 523.323 343.644 522.151C343.644 520.973 343.48 519.984 343.153 519.183C342.826 518.377 342.375 517.768 341.8 517.357C341.231 516.945 340.574 516.74 339.83 516.74C339.092 516.74 338.435 516.945 337.86 517.357C337.285 517.768 336.834 518.377 336.508 519.183C336.181 519.984 336.017 520.973 336.017 522.151C336.017 523.329 336.181 524.324 336.508 525.135C336.834 525.947 337.285 526.564 337.86 526.987C338.435 527.404 339.092 527.613 339.83 527.613ZM351.12 528.399V515.928H353.944C355.037 515.928 355.984 516.176 356.785 516.672C357.591 517.168 358.213 517.881 358.653 518.811C359.093 519.741 359.313 520.86 359.313 522.168C359.313 523.47 359.093 524.586 358.653 525.516C358.213 526.446 357.591 527.159 356.785 527.655C355.984 528.151 355.037 528.399 353.944 528.399H351.12ZM353.834 516.85H352.185V527.477H353.834C354.713 527.477 355.482 527.266 356.142 526.843C356.807 526.415 357.323 525.803 357.689 525.009C358.061 524.214 358.247 523.267 358.247 522.168C358.247 521.063 358.061 520.113 357.689 519.318C357.323 518.524 356.807 517.915 356.142 517.492C355.482 517.064 354.713 516.85 353.834 516.85ZM368.051 527.477V528.399H361.49V515.928H368.051V516.85H362.539V521.677H367.282V522.607H362.539V527.477H368.051Z" fill="#1D1028"/>
<path d="M407.108 524.298C407.05 525.539 406.699 526.477 406.054 527.114C405.408 527.751 404.495 528.07 403.313 528.072C402.072 528.072 401.122 527.667 400.461 526.858C399.8 526.048 399.471 524.893 399.473 523.394V521.561C399.473 520.067 399.814 518.915 400.495 518.106C401.177 517.296 402.126 516.891 403.342 516.891C404.537 516.891 405.445 517.223 406.065 517.886C406.686 518.549 407.038 519.5 407.122 520.737H404.902C404.881 519.977 404.761 519.447 404.543 519.149C404.324 518.864 403.925 518.713 403.342 518.713C403.096 518.691 402.848 518.737 402.626 518.845C402.404 518.954 402.216 519.121 402.084 519.329C401.843 519.742 401.708 520.42 401.693 521.367V523.422C401.693 524.504 401.815 525.246 402.058 525.649C402.192 525.854 402.379 526.019 402.601 526.125C402.822 526.232 403.068 526.276 403.313 526.253C403.888 526.253 404.296 526.114 404.517 525.831C404.738 525.549 404.862 525.039 404.893 524.303L407.108 524.298Z" fill="#1D1028"/>
<path d="M415.125 523.744C415.141 524.517 414.992 525.285 414.688 525.997C414.43 526.608 413.999 527.133 413.447 527.508C412.903 527.866 412.262 528.052 411.609 528.041C410.958 528.05 410.32 527.869 409.773 527.519C409.216 527.146 408.78 526.621 408.518 526.008C408.207 525.294 408.055 524.522 408.07 523.744V523.408C408.053 522.626 408.202 521.848 408.509 521.127C408.769 520.515 409.202 519.99 409.756 519.616C410.305 519.258 410.951 519.073 411.609 519.086C412.076 519.074 412.54 519.164 412.968 519.352C413.395 519.54 413.775 519.82 414.079 520.172C414.722 520.896 415.072 521.864 415.127 523.075L415.125 523.744ZM412.993 523.394C413.03 522.742 412.905 522.091 412.628 521.498C412.538 521.301 412.393 521.135 412.21 521.018C412.027 520.901 411.814 520.838 411.596 520.838C411.378 520.838 411.165 520.901 410.982 521.018C410.799 521.135 410.653 521.301 410.563 521.498C410.296 522.093 410.175 522.743 410.21 523.394V523.736C410.172 524.392 410.3 525.048 410.58 525.643C410.672 525.837 410.818 526.002 410.999 526.118C411.181 526.234 411.393 526.297 411.609 526.299C411.823 526.295 412.032 526.231 412.211 526.112C412.389 525.994 412.529 525.827 412.614 525.632C412.886 525.05 413.013 524.413 412.985 523.773L412.993 523.394Z" fill="#1D1028"/>
<path d="M416.509 527.924V517.042H419.41C420.69 517.042 421.709 517.445 422.47 518.251C423.231 519.061 423.619 520.164 423.633 521.569V523.334C423.633 524.761 423.25 525.884 422.484 526.701C421.718 527.518 420.678 527.926 419.364 527.924H416.509ZM418.724 518.875V526.099H419.387C420.126 526.099 420.643 525.905 420.944 525.529C421.246 525.153 421.404 524.477 421.418 523.534V521.629C421.418 520.614 421.278 519.904 420.99 519.502C420.703 519.1 420.218 518.892 419.531 518.872L418.724 518.875Z" fill="#1D1028"/>
<path d="M430.024 524.306H427.152V526.179H430.567V527.924H425.035V519.215H430.567V520.979H427.163V522.55H430.036L430.024 524.306Z" fill="#1D1028"/>
<path d="M436.975 525.694H433.956L433.367 527.924H431.026L434.453 517.045H436.478L439.925 527.924H437.561L436.975 525.694ZM434.436 523.864H436.484L435.45 519.987L434.436 523.864Z" fill="#1D1028"/>
<path d="M443.659 524.925H442.901V527.924H440.761V519.215H443.938C444.909 519.215 445.661 519.443 446.196 519.896C446.468 520.138 446.681 520.438 446.82 520.773C446.958 521.108 447.019 521.47 446.997 521.832C447.015 522.353 446.909 522.872 446.687 523.345C446.456 523.771 446.099 524.116 445.664 524.335L447.267 527.833V527.924H444.969L443.659 524.925ZM442.901 523.169H443.901C444.544 523.169 444.866 522.803 444.866 522.071C444.866 521.347 444.558 520.985 443.947 520.979H442.901V523.169Z" fill="#1D1028"/>
<path d="M381.804 534L392.958 524.201L389.993 509.762L383.005 515.901L387.703 523.988L381.804 534Z" fill="#1D1028"/>
<path d="M381.502 515.901L380.382 513.968L374.554 523.988L380.326 533.905L380.382 534L380.453 533.866L386.201 523.988L381.502 515.901Z" fill="#1D1028"/>
<defs>
<filter id="filter0_d" x="0.351227" y="0.657607" width="707.298" height="707.298" filterUnits="userSpaceOnUse" color-interpolation-filters="sRGB">
<feFlood flood-opacity="0" result="BackgroundImageFix"/>
<feColorMatrix in="SourceAlpha" type="matrix" values="0 0 0 0 0 0 0 0 0 0 0 0 0 0 0 0 0 0 127 0"/>
<feOffset dy="1.30638"/>
<feGaussianBlur stdDeviation="40.8244"/>
<feColorMatrix type="matrix" values="0 0 0 0 0.396078 0 0 0 0 0.486275 0 0 0 0 0.741176 0 0 0 1 0"/>
<feBlend mode="normal" in2="BackgroundImageFix" result="effect1_dropShadow"/>
<feBlend mode="normal" in="SourceGraphic" in2="effect1_dropShadow" result="shape"/>
</filter>
<filter id="filter1_d" x="15.3512" y="15.6576" width="680.298" height="680.298" filterUnits="userSpaceOnUse" color-interpolation-filters="sRGB">
<feFlood flood-opacity="0" result="BackgroundImageFix"/>
<feColorMatrix in="SourceAlpha" type="matrix" values="0 0 0 0 0 0 0 0 0 0 0 0 0 0 0 0 0 0 127 0"/>
<feOffset dy="1.30638"/>
<feGaussianBlur stdDeviation="40.8244"/>
<feColorMatrix type="matrix" values="0 0 0 0 0.396078 0 0 0 0 0.486275 0 0 0 0 0.741176 0 0 0 1 0"/>
<feBlend mode="normal" in2="BackgroundImageFix" result="effect1_dropShadow"/>
<feBlend mode="normal" in="SourceGraphic" in2="effect1_dropShadow" result="shape"/>
</filter>
<linearGradient id="paint0_linear" x1="272" y1="0" x2="272" y2="544" gradientUnits="userSpaceOnUse">
<stop stop-color="white"/>
<stop offset="1" stop-color="white" stop-opacity="0"/>
</linearGradient>
<linearGradient id="paint1_linear" x1="355.5" y1="96" x2="355.5" y2="613" gradientUnits="userSpaceOnUse">
<stop stop-color="white"/>
<stop offset="1" stop-color="white"/>
</linearGradient>
</defs>
</svg>
